<mxfile host="Electron" agent="Mozilla/5.0 (Windows NT 10.0; Win64; x64) AppleWebKit/537.36 (KHTML, like Gecko) draw.io/26.2.2 Chrome/134.0.6998.178 Electron/35.1.2 Safari/537.36" version="26.2.2">
  <diagram name="Page-1" id="sEVMAXeP3UGSZe_ZqJJN">
    <mxGraphModel dx="1428" dy="2010" grid="1" gridSize="10" guides="1" tooltips="1" connect="1" arrows="1" fold="1" page="1" pageScale="1" pageWidth="827" pageHeight="1169" math="0" shadow="0">
      <root>
        <mxCell id="0" />
        <mxCell id="1" parent="0" />
        <mxCell id="dCS8AHYljsb1Geu4KeNp-1" value="Users" style="swimlane;childLayout=stackLayout;horizontal=1;startSize=50;horizontalStack=0;rounded=1;fontSize=14;fontStyle=0;strokeWidth=2;resizeParent=0;resizeLast=1;shadow=0;dashed=0;align=center;arcSize=4;whiteSpace=wrap;html=1;" vertex="1" parent="1">
          <mxGeometry x="120" y="-220" width="160" height="120" as="geometry" />
        </mxCell>
        <mxCell id="dCS8AHYljsb1Geu4KeNp-2" value="+username (String)&lt;div&gt;+password&amp;nbsp; (String)&lt;/div&gt;" style="align=left;strokeColor=none;fillColor=none;spacingLeft=4;spacingRight=4;fontSize=12;verticalAlign=top;resizable=0;rotatable=0;part=1;html=1;whiteSpace=wrap;" vertex="1" parent="dCS8AHYljsb1Geu4KeNp-1">
          <mxGeometry y="50" width="160" height="70" as="geometry" />
        </mxCell>
        <mxCell id="dCS8AHYljsb1Geu4KeNp-6" value="Movies" style="swimlane;childLayout=stackLayout;horizontal=1;startSize=50;horizontalStack=0;rounded=1;fontSize=14;fontStyle=0;strokeWidth=2;resizeParent=0;resizeLast=1;shadow=0;dashed=0;align=center;arcSize=4;whiteSpace=wrap;html=1;" vertex="1" parent="1">
          <mxGeometry x="470" y="80" width="160" height="120" as="geometry" />
        </mxCell>
        <mxCell id="dCS8AHYljsb1Geu4KeNp-7" value="+title (String)&lt;div&gt;+quatities (interger)&lt;/div&gt;&lt;div&gt;+daily-rental_rate (float)&lt;/div&gt;&lt;div&gt;+barcode ()&lt;/div&gt;" style="align=left;strokeColor=none;fillColor=none;spacingLeft=4;spacingRight=4;fontSize=12;verticalAlign=top;resizable=0;rotatable=0;part=1;html=1;whiteSpace=wrap;" vertex="1" parent="dCS8AHYljsb1Geu4KeNp-6">
          <mxGeometry y="50" width="160" height="70" as="geometry" />
        </mxCell>
        <mxCell id="dCS8AHYljsb1Geu4KeNp-8" value="Customer" style="swimlane;childLayout=stackLayout;horizontal=1;startSize=50;horizontalStack=0;rounded=1;fontSize=14;fontStyle=0;strokeWidth=2;resizeParent=0;resizeLast=1;shadow=0;dashed=0;align=center;arcSize=4;whiteSpace=wrap;html=1;" vertex="1" parent="1">
          <mxGeometry x="260" y="460" width="160" height="120" as="geometry" />
        </mxCell>
        <mxCell id="dCS8AHYljsb1Geu4KeNp-9" value="+first_name (string)&lt;div&gt;+last_name (String)&lt;br&gt;&lt;div&gt;+phone_number (String)&lt;/div&gt;&lt;div&gt;&amp;nbsp;+email (String)&lt;/div&gt;&lt;/div&gt;" style="align=left;strokeColor=none;fillColor=none;spacingLeft=4;spacingRight=4;fontSize=12;verticalAlign=top;resizable=0;rotatable=0;part=1;html=1;whiteSpace=wrap;" vertex="1" parent="dCS8AHYljsb1Geu4KeNp-8">
          <mxGeometry y="50" width="160" height="70" as="geometry" />
        </mxCell>
        <mxCell id="dCS8AHYljsb1Geu4KeNp-19" value="" style="edgeStyle=entityRelationEdgeStyle;fontSize=12;html=1;endArrow=ERmany;startArrow=ERone;rounded=0;startFill=0;" edge="1" parent="1" source="dCS8AHYljsb1Geu4KeNp-9" target="dCS8AHYljsb1Geu4KeNp-30">
          <mxGeometry width="100" height="100" relative="1" as="geometry">
            <mxPoint x="430" y="440" as="sourcePoint" />
            <mxPoint x="530" y="340" as="targetPoint" />
            <Array as="points">
              <mxPoint x="540" y="410" />
              <mxPoint x="470" y="340" />
            </Array>
          </mxGeometry>
        </mxCell>
        <mxCell id="dCS8AHYljsb1Geu4KeNp-22" value="rents" style="edgeLabel;html=1;align=center;verticalAlign=middle;resizable=0;points=[];" vertex="1" connectable="0" parent="dCS8AHYljsb1Geu4KeNp-19">
          <mxGeometry x="0.1892" relative="1" as="geometry">
            <mxPoint as="offset" />
          </mxGeometry>
        </mxCell>
        <mxCell id="dCS8AHYljsb1Geu4KeNp-27" value="" style="edgeStyle=entityRelationEdgeStyle;fontSize=12;html=1;endArrow=ERmany;startArrow=ERone;rounded=0;endFill=0;startFill=0;" edge="1" parent="1" source="dCS8AHYljsb1Geu4KeNp-40" target="dCS8AHYljsb1Geu4KeNp-2">
          <mxGeometry width="100" height="100" relative="1" as="geometry">
            <mxPoint x="360" y="80" as="sourcePoint" />
            <mxPoint x="460" y="-20" as="targetPoint" />
          </mxGeometry>
        </mxCell>
        <mxCell id="dCS8AHYljsb1Geu4KeNp-42" value="Belongs" style="edgeLabel;html=1;align=center;verticalAlign=middle;resizable=0;points=[];" vertex="1" connectable="0" parent="dCS8AHYljsb1Geu4KeNp-27">
          <mxGeometry x="-0.1375" y="-3" relative="1" as="geometry">
            <mxPoint as="offset" />
          </mxGeometry>
        </mxCell>
        <mxCell id="dCS8AHYljsb1Geu4KeNp-29" value="Rental" style="swimlane;childLayout=stackLayout;horizontal=1;startSize=50;horizontalStack=0;rounded=1;fontSize=14;fontStyle=0;strokeWidth=2;resizeParent=0;resizeLast=1;shadow=0;dashed=0;align=center;arcSize=4;whiteSpace=wrap;html=1;" vertex="1" parent="1">
          <mxGeometry x="540" y="340" width="160" height="120" as="geometry" />
        </mxCell>
        <mxCell id="dCS8AHYljsb1Geu4KeNp-30" value="&lt;span style=&quot;background-color: transparent; color: light-dark(rgb(0, 0, 0), rgb(255, 255, 255));&quot;&gt;+rental_day(date)&lt;/span&gt;&lt;div&gt;&lt;span style=&quot;background-color: transparent; color: light-dark(rgb(0, 0, 0), rgb(255, 255, 255));&quot;&gt;+return_day(date)&lt;/span&gt;&lt;/div&gt;" style="align=left;strokeColor=none;fillColor=none;spacingLeft=4;spacingRight=4;fontSize=12;verticalAlign=top;resizable=0;rotatable=0;part=1;html=1;whiteSpace=wrap;" vertex="1" parent="dCS8AHYljsb1Geu4KeNp-29">
          <mxGeometry y="50" width="160" height="70" as="geometry" />
        </mxCell>
        <mxCell id="dCS8AHYljsb1Geu4KeNp-32" value="" style="edgeStyle=entityRelationEdgeStyle;fontSize=12;html=1;endArrow=ERone;startArrow=ERmany;rounded=0;endFill=0;" edge="1" parent="1" source="dCS8AHYljsb1Geu4KeNp-30" target="dCS8AHYljsb1Geu4KeNp-7">
          <mxGeometry width="100" height="100" relative="1" as="geometry">
            <mxPoint x="580" y="310" as="sourcePoint" />
            <mxPoint x="700" y="190" as="targetPoint" />
            <Array as="points">
              <mxPoint x="700" y="175" />
              <mxPoint x="790" y="245" />
              <mxPoint x="630" y="105" />
            </Array>
          </mxGeometry>
        </mxCell>
        <mxCell id="dCS8AHYljsb1Geu4KeNp-35" value="Coupon" style="swimlane;childLayout=stackLayout;horizontal=1;startSize=50;horizontalStack=0;rounded=1;fontSize=14;fontStyle=0;strokeWidth=2;resizeParent=0;resizeLast=1;shadow=0;dashed=0;align=center;arcSize=4;whiteSpace=wrap;html=1;" vertex="1" parent="1">
          <mxGeometry x="560" y="560" width="160" height="120" as="geometry" />
        </mxCell>
        <mxCell id="dCS8AHYljsb1Geu4KeNp-36" value="+code (String)&lt;div&gt;+descrption (String)&lt;/div&gt;&lt;div&gt;+disount (String)&lt;/div&gt;" style="align=left;strokeColor=none;fillColor=none;spacingLeft=4;spacingRight=4;fontSize=12;verticalAlign=top;resizable=0;rotatable=0;part=1;html=1;whiteSpace=wrap;" vertex="1" parent="dCS8AHYljsb1Geu4KeNp-35">
          <mxGeometry y="50" width="160" height="70" as="geometry" />
        </mxCell>
        <mxCell id="dCS8AHYljsb1Geu4KeNp-37" value="" style="edgeStyle=entityRelationEdgeStyle;fontSize=12;html=1;endArrow=ERmany;startArrow=ERzeroToOne;rounded=0;startFill=0;" edge="1" parent="1" source="dCS8AHYljsb1Geu4KeNp-36" target="dCS8AHYljsb1Geu4KeNp-30">
          <mxGeometry width="100" height="100" relative="1" as="geometry">
            <mxPoint x="630" y="780" as="sourcePoint" />
            <mxPoint x="730" y="680" as="targetPoint" />
          </mxGeometry>
        </mxCell>
        <mxCell id="dCS8AHYljsb1Geu4KeNp-38" value="applied to" style="edgeLabel;html=1;align=center;verticalAlign=middle;resizable=0;points=[];" vertex="1" connectable="0" parent="dCS8AHYljsb1Geu4KeNp-37">
          <mxGeometry x="0.0267" y="3" relative="1" as="geometry">
            <mxPoint as="offset" />
          </mxGeometry>
        </mxCell>
        <mxCell id="dCS8AHYljsb1Geu4KeNp-39" value="Role" style="swimlane;childLayout=stackLayout;horizontal=1;startSize=50;horizontalStack=0;rounded=1;fontSize=14;fontStyle=0;strokeWidth=2;resizeParent=0;resizeLast=1;shadow=0;dashed=0;align=center;arcSize=4;whiteSpace=wrap;html=1;" vertex="1" parent="1">
          <mxGeometry x="440" y="-240" width="160" height="120" as="geometry" />
        </mxCell>
        <mxCell id="dCS8AHYljsb1Geu4KeNp-40" value="name" style="align=left;strokeColor=none;fillColor=none;spacingLeft=4;spacingRight=4;fontSize=12;verticalAlign=top;resizable=0;rotatable=0;part=1;html=1;whiteSpace=wrap;" vertex="1" parent="dCS8AHYljsb1Geu4KeNp-39">
          <mxGeometry y="50" width="160" height="70" as="geometry" />
        </mxCell>
      </root>
    </mxGraphModel>
  </diagram>
</mxfile>
